<svg width="125" height="20" viewBox="0 0 125 20" fill="none" xmlns="http://www.w3.org/2000/svg">
<path d="M8.73372 3.5556C9.9459 1.82662 12.5072 1.82662 13.7194 3.5556L13.7643 3.61965C14.2868 4.365 15.1302 4.82038 16.0401 4.84847L16.641 4.86702C18.5733 4.92666 19.7302 7.04058 18.7388 8.70024V8.70024C18.2607 9.50078 18.2607 10.4992 18.7388 11.2998V11.2998C19.7302 12.9594 18.5733 15.0733 16.641 15.133L16.0401 15.1515C15.1302 15.1796 14.2868 15.635 13.7643 16.3804L13.7194 16.4444C12.5072 18.1734 9.9459 18.1734 8.73372 16.4444L8.68882 16.3804C8.16625 15.635 7.32288 15.1796 6.41302 15.1515L5.81209 15.133C3.87983 15.0733 2.72293 12.9594 3.71426 11.2998V11.2998C4.19243 10.4992 4.19243 9.50078 3.71426 8.70024V8.70024C2.72293 7.04058 3.87983 4.92666 5.81208 4.86702L6.41302 4.84847C7.32288 4.82038 8.16625 4.365 8.68882 3.61965L8.73372 3.5556Z" fill="#FAEC23"/>
<path d="M34.3377 3.54945C35.5736 1.81261 38.1531 1.81261 39.389 3.54945L39.4412 3.6228C39.9706 4.36681 40.8177 4.82015 41.7304 4.84791L42.4135 4.86869C44.3423 4.92735 45.4921 7.04354 44.4917 8.69369V8.69369C44.005 9.49656 44.005 10.5034 44.4917 11.3063V11.3063C45.4921 12.9565 44.3423 15.0726 42.4135 15.1313L41.7304 15.1521C40.8177 15.1798 39.9706 15.6332 39.4412 16.3772L39.389 16.4505C38.1531 18.1874 35.5736 18.1874 34.3377 16.4505L34.2855 16.3772C33.7561 15.6332 32.909 15.1798 31.9963 15.1521L31.3132 15.1313C29.3844 15.0726 28.2346 12.9565 29.235 11.3063V11.3063C29.7217 10.5034 29.7217 9.49656 29.235 8.69369V8.69369C28.2346 7.04353 29.3844 4.92735 31.3132 4.86869L31.9963 4.84791C32.909 4.82015 33.7561 4.36681 34.2855 3.6228L34.3377 3.54945Z" fill="#FAEC23"/>
<path d="M60.0072 3.5556C61.2193 1.82662 63.7806 1.82662 64.9928 3.5556L65.0377 3.61965C65.5603 4.365 66.4036 4.82038 67.3135 4.84847L67.9144 4.86702C69.8467 4.92666 71.0036 7.04058 70.0123 8.70024V8.70024C69.5341 9.50078 69.5341 10.4992 70.0123 11.2998V11.2998C71.0036 12.9594 69.8467 15.0733 67.9144 15.133L67.3135 15.1515C66.4036 15.1796 65.5603 15.635 65.0377 16.3804L64.9928 16.4444C63.7806 18.1734 61.2193 18.1734 60.0072 16.4444L59.9623 16.3804C59.4397 15.635 58.5963 15.1796 57.6865 15.1515L57.0855 15.133C55.1533 15.0733 53.9964 12.9594 54.9877 11.2998V11.2998C55.4659 10.4992 55.4659 9.50078 54.9877 8.70024V8.70024C53.9964 7.04058 55.1533 4.92666 57.0855 4.86702L57.6865 4.84847C58.5963 4.82038 59.4397 4.365 59.9623 3.61965L60.0072 3.5556Z" fill="#FAEC23"/>
<path d="M85.6111 3.54945C86.847 1.81261 89.4266 1.81261 90.6624 3.54945L90.7146 3.6228C91.244 4.36681 92.0911 4.82015 93.0039 4.84791L93.6869 4.86869C95.6157 4.92735 96.7655 7.04354 95.7652 8.69369V8.69369C95.2784 9.49656 95.2784 10.5034 95.7652 11.3063V11.3063C96.7655 12.9565 95.6157 15.0726 93.6869 15.1313L93.0039 15.1521C92.0911 15.1798 91.244 15.6332 90.7146 16.3772L90.6624 16.4505C89.4266 18.1874 86.847 18.1874 85.6111 16.4505L85.5589 16.3772C85.0295 15.6332 84.1824 15.1798 83.2697 15.1521L82.5866 15.1313C80.6578 15.0726 79.508 12.9565 80.5084 11.3063V11.3063C80.9951 10.5034 80.9951 9.49656 80.5084 8.69369V8.69369C79.508 7.04353 80.6578 4.92735 82.5866 4.86869L83.2697 4.84791C84.1824 4.82015 85.0295 4.36681 85.5589 3.6228L85.6111 3.54945Z" fill="#FAEC23"/>
<path d="M111.281 3.5556C112.493 1.82662 115.054 1.82662 116.266 3.5556L116.311 3.61965C116.834 4.365 117.677 4.82038 118.587 4.84847L119.188 4.86702C121.12 4.92666 122.277 7.04058 121.286 8.70024V8.70024C120.808 9.50078 120.808 10.4992 121.286 11.2998V11.2998C122.277 12.9594 121.12 15.0733 119.188 15.133L118.587 15.1515C117.677 15.1796 116.834 15.635 116.311 16.3804L116.266 16.4444C115.054 18.1734 112.493 18.1734 111.281 16.4444L111.236 16.3804C110.713 15.635 109.87 15.1796 108.96 15.1515L108.359 15.133C106.427 15.0733 105.27 12.9594 106.261 11.2998V11.2998C106.739 10.4992 106.739 9.50078 106.261 8.70024V8.70024C105.27 7.04058 106.427 4.92666 108.359 4.86702L108.96 4.84847C109.87 4.82038 110.713 4.365 111.236 3.61965L111.281 3.5556Z" fill="#FAEC23"/>
</svg>
